<svg style="max-width:538px" class="tw|p-4 tw|w-[300px] tw|mb-6 sm:tw|w-[350px] md:tw|w-[400px]" viewBox="0 0 769 97" fill="none" xmlns="http://www.w3.org/2000/svg"><g clip-path="url(#clip0_1212_171)"><path d="M619.22 21.12V7.78054H624.493C625.682 7.78054 626.693 7.96814 627.526 8.33347C628.358 8.6988 629.003 9.23199 629.458 9.93302C629.904 10.6341 630.132 11.4635 630.132 12.4311C630.132 13.3987 629.904 14.2281 629.458 14.9193C629.003 15.6104 628.358 16.1436 627.526 16.5188C626.693 16.894 625.672 17.0816 624.493 17.0816H620.281L621.153 16.1831V21.12H619.22ZM621.153 16.3707L620.281 15.4228H624.433C625.672 15.4228 626.604 15.1661 627.248 14.6428C627.883 14.1195 628.21 13.3888 628.21 12.4311C628.21 11.4733 627.892 10.7427 627.248 10.2194C626.614 9.69605 625.672 9.43934 624.433 9.43934H620.281L621.153 8.49145V16.3806V16.3707Z" fill="#1D1D1B"></path>
        <path d="M632.888 21.12V7.78054H638.161C639.35 7.78054 640.361 7.96814 641.193 8.33347C642.026 8.6988 642.67 9.23199 643.126 9.93302C643.572 10.6341 643.8 11.4635 643.8 12.4311C643.8 13.3987 643.572 14.2281 643.126 14.9193C642.67 15.6104 642.026 16.1436 641.193 16.509C640.361 16.8743 639.34 17.0619 638.161 17.0619H633.948L634.82 16.1831V21.12H632.888ZM634.82 16.3707L633.948 15.4327H638.101C639.34 15.4327 640.272 15.1661 640.916 14.6428C641.55 14.1195 641.877 13.379 641.877 12.4212C641.877 11.4635 641.56 10.7328 640.916 10.2095C640.282 9.68618 639.34 9.42946 638.101 9.42946H633.948L634.82 8.48158V16.3707ZM641.927 21.12L638.488 16.2819H640.559L644.038 21.12H641.927Z" fill="#1D1D1B"></path>
        <path d="M652.948 21.2681C651.917 21.2681 650.956 21.1003 650.074 20.7547C649.192 20.4091 648.429 19.9352 647.784 19.3131C647.14 18.7009 646.635 17.9802 646.278 17.1508C645.921 16.3214 645.733 15.4228 645.733 14.4453C645.733 13.4678 645.911 12.5693 646.278 11.7399C646.635 10.9105 647.14 10.1897 647.784 9.57757C648.429 8.96539 649.192 8.48158 650.064 8.136C650.936 7.79041 651.898 7.62256 652.948 7.62256C653.999 7.62256 654.931 7.79041 655.803 8.12612C656.675 8.46183 657.428 8.93577 658.082 9.55782C658.736 10.17 659.232 10.8908 659.589 11.7202C659.946 12.5496 660.124 13.458 660.124 14.4453C660.124 15.4327 659.946 16.3411 659.589 17.1705C659.232 17.9999 658.736 18.7207 658.082 19.3329C657.428 19.945 656.675 20.4289 655.803 20.7646C654.931 21.1003 653.979 21.2681 652.948 21.2681ZM652.948 19.5797C653.692 19.5797 654.385 19.4513 655.03 19.1946C655.674 18.9379 656.219 18.5825 656.695 18.1184C657.161 17.6543 657.527 17.1113 657.795 16.4892C658.063 15.8672 658.191 15.1859 658.191 14.4552C658.191 13.7246 658.063 13.0433 657.795 12.4212C657.527 11.7992 657.161 11.2561 656.695 10.792C656.229 10.328 655.674 9.97252 655.03 9.7158C654.395 9.45908 653.702 9.33072 652.948 9.33072C652.195 9.33072 651.491 9.45908 650.847 9.7158C650.213 9.97252 649.648 10.328 649.172 10.792C648.696 11.2561 648.33 11.7992 648.062 12.4212C647.794 13.0433 647.666 13.7246 647.666 14.4552C647.666 15.1859 647.794 15.8672 648.062 16.4892C648.33 17.1113 648.696 17.6543 649.172 18.1184C649.648 18.5825 650.203 18.9379 650.847 19.1946C651.481 19.4513 652.185 19.5797 652.948 19.5797Z" fill="#1D1D1B"></path>
        <path d="M669.084 21.2681C668.043 21.2681 667.082 21.1003 666.2 20.7646C665.327 20.4289 664.564 19.9549 663.92 19.3329C663.276 18.7207 662.77 17.9999 662.414 17.1705C662.057 16.3411 661.868 15.4327 661.868 14.4453C661.868 13.458 662.047 12.5496 662.414 11.7202C662.77 10.8908 663.276 10.17 663.93 9.55782C664.584 8.94565 665.347 8.46183 666.22 8.12612C667.092 7.79041 668.063 7.62256 669.114 7.62256C670.164 7.62256 671.165 7.79041 672.047 8.136C672.939 8.48158 673.693 8.99501 674.307 9.67631L673.108 10.8612C672.553 10.328 671.948 9.93302 671.304 9.68618C670.65 9.43933 669.946 9.31098 669.193 9.31098C668.44 9.31098 667.706 9.43933 667.042 9.69605C666.378 9.95277 665.803 10.3082 665.318 10.7624C664.832 11.2166 664.465 11.7597 664.198 12.3916C663.93 13.0235 663.801 13.7048 663.801 14.4355C663.801 15.1661 663.93 15.8375 664.198 16.4596C664.465 17.0915 664.832 17.6346 665.318 18.0986C665.803 18.5627 666.368 18.9182 667.032 19.1749C667.686 19.4316 668.4 19.56 669.173 19.56C669.897 19.56 670.59 19.4513 671.254 19.2242C671.919 19.007 672.533 18.6318 673.098 18.1085L674.198 19.56C673.524 20.1228 672.741 20.5375 671.849 20.8238C670.957 21.1101 670.025 21.2484 669.074 21.2484L669.084 21.2681ZM672.355 19.323V14.3664H674.208V19.5698L672.355 19.323Z" fill="#1D1D1B"></path>
        <path d="M677.796 21.12V7.78054H683.069C684.258 7.78054 685.269 7.96814 686.102 8.33347C686.934 8.6988 687.578 9.23199 688.034 9.93302C688.48 10.6341 688.708 11.4635 688.708 12.4311C688.708 13.3987 688.48 14.2281 688.034 14.9193C687.578 15.6104 686.944 16.1436 686.102 16.509C685.269 16.8743 684.248 17.0619 683.069 17.0619H678.856L679.729 16.1831V21.12H677.796ZM679.729 16.3707L678.856 15.4327H683.009C684.248 15.4327 685.18 15.1661 685.824 14.6428C686.458 14.1195 686.786 13.379 686.786 12.4212C686.786 11.4635 686.468 10.7328 685.824 10.2095C685.19 9.68618 684.248 9.42946 683.009 9.42946H678.856L679.729 8.48158V16.3707ZM686.845 21.12L683.406 16.2819H685.477L688.956 21.12H686.845Z" fill="#1D1D1B"></path>
        <path d="M689.709 21.12L695.835 7.79041H697.747L703.892 21.12H701.861L696.39 8.85678H697.163L691.692 21.12H689.699H689.709ZM692.316 17.7827L692.841 16.2621H700.453L701.018 17.7827H692.326H692.316Z" fill="#1D1D1B"></path>
        <path d="M705.805 21.12V7.78054H707.391L713.457 17.8518H712.605L718.591 7.78054H720.177L720.197 21.1101H718.343L718.323 10.6538H718.769L713.437 19.4908H712.545L707.173 10.6538H707.659V21.1101H705.805V21.12Z" fill="#1D1D1B"></path>
        <path d="M722.11 21.12L728.235 7.79041H730.148L736.293 21.12H734.261L728.79 8.85678H729.563L724.092 21.12H722.1H722.11ZM724.726 17.7827L725.251 16.2621H732.863L733.428 17.7827H724.736H724.726Z" fill="#1D1D1B"></path>
        <path d="M743.32 21.12V7.78054H749.019C750.466 7.78054 751.734 8.05701 752.835 8.61981C753.935 9.18262 754.797 9.96265 755.402 10.9599C756.016 11.967 756.323 13.1223 756.323 14.4453C756.323 15.7684 756.016 16.9237 755.402 17.9308C754.787 18.9379 753.935 19.7179 752.835 20.2709C751.734 20.8337 750.456 21.1101 749.019 21.1101H743.32V21.12ZM745.252 19.4612H748.91C750.03 19.4612 751.001 19.2539 751.814 18.8293C752.636 18.4146 753.271 17.8222 753.717 17.0718C754.163 16.3214 754.391 15.4426 754.391 14.4552C754.391 13.4678 754.163 12.5792 753.717 11.8288C753.261 11.0784 752.626 10.4958 751.814 10.0811C750.991 9.66643 750.03 9.44921 748.91 9.44921H745.252V19.4711V19.4612Z" fill="#1D1D1B"></path>
        <path d="M761.111 19.4612H769V21.12H759.178V7.78054H768.722V9.43934H761.111V19.4612ZM760.942 13.537H767.9V15.1563H760.942V13.537Z" fill="#1D1D1B"></path>
        <path d="M625.276 45.2614C624.245 45.2614 623.294 45.0936 622.421 44.7578C621.549 44.4221 620.796 43.9482 620.162 43.3261C619.527 42.714 619.022 41.9932 618.665 41.1638C618.308 40.3344 618.12 39.426 618.12 38.4386C618.12 37.4512 618.298 36.5429 618.665 35.7135C619.022 34.8841 619.527 34.1633 620.171 33.5511C620.816 32.9389 621.569 32.4551 622.441 32.1194C623.313 31.7837 624.265 31.6158 625.296 31.6158C626.326 31.6158 627.298 31.7936 628.19 32.1392C629.072 32.4847 629.825 33.008 630.44 33.6893L629.181 34.8939C628.665 34.3608 628.081 33.9658 627.446 33.6992C626.802 33.4425 626.108 33.3043 625.375 33.3043C624.641 33.3043 623.908 33.4326 623.264 33.6893C622.61 33.9461 622.045 34.3015 621.569 34.7557C621.093 35.2099 620.727 35.753 620.459 36.3849C620.191 37.0168 620.062 37.6981 620.062 38.4288C620.062 39.1594 620.191 39.8506 620.459 40.4726C620.727 41.1045 621.093 41.6476 621.569 42.1018C622.045 42.556 622.61 42.9114 623.264 43.1682C623.918 43.4249 624.622 43.5532 625.375 43.5532C626.128 43.5532 626.802 43.4249 627.446 43.1583C628.091 42.9016 628.665 42.4967 629.181 41.9537L630.44 43.1583C629.825 43.8396 629.072 44.3629 628.19 44.7183C627.308 45.0738 626.336 45.2515 625.286 45.2515L625.276 45.2614Z" fill="#1D1D1B"></path>
        <path d="M630.717 45.1133L636.842 31.7837H638.755L644.9 45.1133H642.868L637.397 32.8501H638.17L632.699 45.1133H630.707H630.717ZM633.334 41.776L633.859 40.2554H641.471L642.036 41.776H633.344H633.334Z" fill="#1D1D1B"></path>
        <path d="M646.823 45.1133V31.7837H652.096C653.285 31.7837 654.296 31.9713 655.129 32.3366C655.961 32.702 656.606 33.2351 657.061 33.9362C657.507 34.6372 657.735 35.4666 657.735 36.4342C657.735 37.4019 657.507 38.2313 657.061 38.9224C656.606 39.6136 655.971 40.1468 655.129 40.522C654.296 40.8972 653.275 41.0848 652.096 41.0848H647.884L648.756 40.1863V45.1232H646.823V45.1133ZM648.756 40.3739L647.884 39.426H652.036C653.275 39.426 654.207 39.1693 654.851 38.646C655.486 38.1227 655.813 37.392 655.813 36.4342C655.813 35.4765 655.496 34.7458 654.851 34.2225C654.207 33.6992 653.275 33.4425 652.036 33.4425H647.884L648.756 32.4946V40.3838V40.3739Z" fill="#1D1D1B"></path>
        <path d="M657.755 45.1133L663.88 31.7837H665.793L671.938 45.1133H669.907L664.436 32.8501H665.209L659.738 45.1133H657.745H657.755ZM660.372 41.776L660.897 40.2554H668.509L669.074 41.776H660.382H660.372Z" fill="#1D1D1B"></path>
        <path d="M679.709 45.2614C678.678 45.2614 677.727 45.0936 676.854 44.7578C675.982 44.4221 675.229 43.9482 674.595 43.3261C673.96 42.7041 673.455 41.9932 673.098 41.1638C672.741 40.3344 672.553 39.426 672.553 38.4386C672.553 37.4512 672.731 36.5429 673.098 35.7135C673.455 34.8841 673.96 34.1633 674.605 33.5511C675.249 32.9389 676.002 32.4551 676.874 32.1194C677.746 31.7837 678.698 31.6158 679.729 31.6158C680.759 31.6158 681.731 31.7936 682.623 32.1392C683.505 32.4847 684.258 33.008 684.873 33.6893L683.614 34.8939C683.099 34.3608 682.514 33.9658 681.879 33.6992C681.235 33.4425 680.541 33.3043 679.808 33.3043C679.075 33.3043 678.341 33.4326 677.697 33.6893C677.043 33.9461 676.478 34.3015 676.002 34.7557C675.526 35.2099 675.16 35.753 674.892 36.3849C674.624 37.0168 674.496 37.6981 674.496 38.4288C674.496 39.1594 674.624 39.8506 674.892 40.4726C675.16 41.1045 675.526 41.6476 676.002 42.1018C676.478 42.556 677.043 42.9114 677.697 43.1682C678.351 43.4249 679.055 43.5532 679.808 43.5532C680.561 43.5532 681.235 43.4249 681.879 43.1583C682.524 42.9016 683.099 42.4967 683.614 41.9537L684.873 43.1583C684.258 43.8396 683.505 44.3629 682.623 44.7183C681.741 45.0738 680.769 45.2515 679.719 45.2515L679.709 45.2614Z" fill="#1D1D1B"></path>
        <path d="M687.539 45.1133V31.7837H689.472V45.1133H687.539Z" fill="#1D1D1B"></path>
        <path d="M696.122 45.1133V33.4425H691.483V31.7837H702.673V33.4425H698.035V45.1133H696.122Z" fill="#1D1D1B"></path>
        <path d="M701.96 45.1133L708.085 31.7837H709.998L716.143 45.1133H714.111L708.64 32.8501H709.413L703.942 45.1133H701.95H701.96ZM704.566 41.776L705.092 40.2554H712.704L713.269 41.776H704.576H704.566Z" fill="#1D1D1B"></path>
        <path d="M723.913 45.2614C722.883 45.2614 721.931 45.0936 721.059 44.7578C720.187 44.4221 719.433 43.9482 718.799 43.3261C718.165 42.7041 717.659 41.9932 717.302 41.1638C716.946 40.3344 716.757 39.426 716.757 38.4386C716.757 37.4512 716.936 36.5429 717.302 35.7135C717.659 34.8841 718.165 34.1633 718.809 33.5511C719.453 32.9389 720.207 32.4551 721.079 32.1194C721.951 31.7837 722.902 31.6158 723.933 31.6158C724.964 31.6158 725.935 31.7936 726.827 32.1392C727.709 32.4847 728.463 33.008 729.077 33.6893L727.818 34.8939C727.303 34.3608 726.718 33.9658 726.084 33.6992C725.44 33.4425 724.746 33.3043 724.012 33.3043C723.279 33.3043 722.546 33.4326 721.901 33.6893C721.247 33.9461 720.682 34.3015 720.207 34.7557C719.731 35.2099 719.364 35.753 719.097 36.3849C718.829 37.0168 718.7 37.6981 718.7 38.4287C718.7 39.1594 718.829 39.8506 719.097 40.4726C719.364 41.1045 719.731 41.6476 720.207 42.1018C720.682 42.556 721.247 42.9114 721.901 43.1682C722.556 43.4249 723.259 43.5532 724.012 43.5532C724.766 43.5532 725.44 43.4249 726.084 43.1583C726.728 42.9016 727.313 42.4967 727.818 41.9537L729.077 43.1583C728.463 43.8396 727.709 44.3629 726.827 44.7183C725.945 45.0738 724.974 45.2515 723.923 45.2515L723.913 45.2614ZM723.121 49.3788C722.784 49.3788 722.476 49.3393 722.189 49.2702C721.901 49.201 721.644 49.0924 721.396 48.9542L721.802 48.0162C722.01 48.1347 722.219 48.2137 722.427 48.263C722.635 48.3124 722.873 48.342 723.111 48.342C723.487 48.342 723.755 48.2729 723.933 48.1445C724.112 48.0162 724.191 47.8286 724.191 47.5817C724.191 47.3546 724.102 47.1769 723.933 47.0387C723.755 46.9103 723.477 46.8412 723.091 46.8412H722.565L723.051 44.9751H724.112L723.824 46.0612C724.379 46.1106 724.795 46.2883 725.083 46.5746C725.37 46.8708 725.509 47.2263 725.509 47.641C725.509 48.1742 725.291 48.5987 724.855 48.9048C724.419 49.2208 723.834 49.3689 723.111 49.3689L723.121 49.3788Z" fill="#1D1D1B"></path>
        <path d="M729.365 45.1133L735.49 31.7837H737.403L743.548 45.1133H741.516L736.045 32.8501H736.818L731.347 45.1133H729.355H729.365ZM731.971 41.776L732.497 40.2554H740.108L740.673 41.776H731.981H731.971ZM737.809 30.6383C737.502 30.6383 737.224 30.5791 736.986 30.4507C736.749 30.3224 736.53 30.1743 736.342 30.0064C736.144 29.8386 735.966 29.6905 735.777 29.5621C735.589 29.4337 735.42 29.3745 735.232 29.3745C734.945 29.3745 734.717 29.4831 734.548 29.6905C734.37 29.8978 734.271 30.1842 734.251 30.5594H733.21C733.24 29.8484 733.418 29.2856 733.755 28.8611C734.092 28.4464 734.538 28.2291 735.113 28.2291C735.42 28.2291 735.698 28.2983 735.946 28.4266C736.194 28.5649 736.412 28.713 736.6 28.8808C736.788 29.0487 736.977 29.1968 737.155 29.3251C737.333 29.4535 737.502 29.5127 737.69 29.5127C737.978 29.5127 738.206 29.414 738.384 29.2066C738.562 28.9993 738.661 28.7228 738.671 28.3674H739.712C739.702 29.0388 739.524 29.5818 739.177 30.0064C738.84 30.4211 738.384 30.6383 737.819 30.6383H737.809Z" fill="#1D1D1B"></path>
        <path d="M751.378 45.2614C750.347 45.2614 749.386 45.0936 748.503 44.748C747.621 44.4024 746.858 43.9284 746.214 43.3064C745.57 42.6942 745.064 41.9734 744.707 41.144C744.351 40.3146 744.162 39.4161 744.162 38.4386C744.162 37.4611 744.341 36.5626 744.707 35.7332C745.064 34.9038 745.57 34.183 746.214 33.5709C746.858 32.9587 747.621 32.4749 748.493 32.1293C749.366 31.7837 750.327 31.6158 751.378 31.6158C752.428 31.6158 753.36 31.7837 754.232 32.1194C755.104 32.4551 755.858 32.9291 756.512 33.5511C757.166 34.1633 757.661 34.8841 758.018 35.7135C758.375 36.5429 758.553 37.4512 758.553 38.4386C758.553 39.426 758.375 40.3344 758.018 41.1638C757.661 41.9932 757.166 42.714 756.512 43.3261C755.858 43.9383 755.104 44.4221 754.232 44.7578C753.36 45.0936 752.408 45.2614 751.378 45.2614ZM751.378 43.573C752.121 43.573 752.815 43.4446 753.459 43.1879C754.093 42.9312 754.648 42.5757 755.124 42.1117C755.59 41.6476 755.957 41.1045 756.224 40.4825C756.492 39.8604 756.621 39.1792 756.621 38.4485C756.621 37.7178 756.492 37.0366 756.224 36.4145C755.957 35.7925 755.59 35.2494 755.124 34.7853C754.658 34.3213 754.103 33.9658 753.459 33.7091C752.825 33.4524 752.131 33.324 751.378 33.324C750.624 33.324 749.921 33.4524 749.276 33.7091C748.642 33.9658 748.077 34.3213 747.601 34.7853C747.126 35.2494 746.759 35.7925 746.491 36.4145C746.224 37.0366 746.095 37.7178 746.095 38.4485C746.095 39.1792 746.224 39.8604 746.491 40.4825C746.759 41.1045 747.126 41.6476 747.601 42.1117C748.077 42.5757 748.632 42.9312 749.276 43.1879C749.911 43.4446 750.614 43.573 751.378 43.573Z" fill="#1D1D1B"></path>
        <path d="M619.22 69.1066V55.777H624.493C625.682 55.777 626.693 55.9646 627.526 56.3299C628.358 56.6952 629.003 57.2284 629.458 57.9295C629.904 58.6305 630.132 59.4599 630.132 60.4275C630.132 61.3952 629.904 62.2246 629.458 62.9157C629.003 63.6069 628.358 64.1401 627.526 64.5153C626.693 64.8905 625.672 65.0781 624.493 65.0781H620.281L621.153 64.1796V69.1165H619.22V69.1066ZM621.153 64.3672L620.281 63.4193H624.433C625.672 63.4193 626.604 63.1626 627.248 62.6393C627.883 62.1159 628.21 61.3853 628.21 60.4275C628.21 59.4698 627.892 58.7391 627.248 58.2158C626.614 57.6925 625.672 57.4358 624.433 57.4358H620.281L621.153 56.4879V64.377V64.3672Z" fill="#1D1D1B"></path>
        <path d="M632.888 69.1066V55.777H638.161C639.35 55.777 640.361 55.9646 641.193 56.3299C642.026 56.6952 642.67 57.2284 643.126 57.9295C643.572 58.6305 643.8 59.4599 643.8 60.4275C643.8 61.3952 643.572 62.2246 643.126 62.9157C642.67 63.6069 642.026 64.1401 641.193 64.5054C640.361 64.8707 639.34 65.0583 638.161 65.0583H633.948L634.82 64.1796V69.1165H632.888V69.1066ZM634.82 64.3672L633.948 63.4292H638.101C639.34 63.4292 640.272 63.1626 640.916 62.6393C641.55 62.1159 641.877 61.3754 641.877 60.4177C641.877 59.4599 641.56 58.7292 640.916 58.2059C640.282 57.6826 639.34 57.4259 638.101 57.4259H633.948L634.82 56.478V64.3672ZM641.927 69.1066L638.488 64.2684H640.559L644.038 69.1066H641.927Z" fill="#1D1D1B"></path>
        <path d="M652.948 69.2646C651.917 69.2646 650.956 69.0967 650.074 68.7511C649.192 68.4055 648.429 67.9316 647.784 67.3095C647.14 66.6974 646.635 65.9766 646.278 65.1472C645.921 64.3178 645.733 63.4193 645.733 62.4418C645.733 61.4643 645.911 60.5658 646.278 59.7364C646.635 58.907 647.14 58.1862 647.784 57.574C648.429 56.9618 649.192 56.478 650.064 56.1324C650.936 55.7868 651.898 55.619 652.948 55.619C653.999 55.619 654.931 55.7868 655.803 56.1226C656.675 56.4583 657.428 56.9322 658.082 57.5543C658.736 58.1664 659.232 58.8872 659.589 59.7166C659.946 60.546 660.124 61.4544 660.124 62.4418C660.124 63.4292 659.946 64.3375 659.589 65.1669C659.232 65.9963 658.736 66.7171 658.082 67.3293C657.428 67.9415 656.675 68.4253 655.803 68.761C654.931 69.0967 653.979 69.2646 652.948 69.2646ZM652.948 67.5663C653.692 67.5663 654.385 67.4379 655.03 67.1812C655.674 66.9245 656.219 66.569 656.695 66.1049C657.161 65.6409 657.527 65.0978 657.795 64.4758C658.063 63.8537 658.191 63.1724 658.191 62.4418C658.191 61.7111 658.063 61.0298 657.795 60.4078C657.527 59.7857 657.161 59.2427 656.695 58.7786C656.229 58.3145 655.674 57.9591 655.03 57.7024C654.395 57.4456 653.702 57.3173 652.948 57.3173C652.195 57.3173 651.491 57.4456 650.847 57.7024C650.213 57.9591 649.648 58.3145 649.172 58.7786C648.696 59.2427 648.33 59.7857 648.062 60.4078C647.794 61.0298 647.666 61.7111 647.666 62.4418C647.666 63.1724 647.794 63.8537 648.062 64.4758C648.33 65.0978 648.696 65.6409 649.172 66.1049C649.648 66.569 650.203 66.9245 650.847 67.1812C651.481 67.4379 652.185 67.5663 652.948 67.5663Z" fill="#1D1D1B"></path>
        <path d="M664.911 69.1066H662.979V55.777H672.523V57.4358H664.911V69.1066ZM664.713 62.0764H671.691V63.7155H664.713V62.0764Z" fill="#1D1D1B"></path>
        <path d="M675.15 69.1066V55.777H677.082V69.1066H675.15Z" fill="#1D1D1B"></path>
        <path d="M684.992 69.2646C683.961 69.2646 682.98 69.1066 682.038 68.8005C681.096 68.4944 680.353 68.0896 679.818 67.5959L680.531 66.1148C681.047 66.5591 681.701 66.9245 682.504 67.2207C683.307 67.5169 684.129 67.6551 685.002 67.6551C685.785 67.6551 686.429 67.5663 686.914 67.3885C687.4 67.2108 687.767 66.964 687.995 66.6579C688.223 66.3518 688.342 65.9963 688.342 65.6014C688.342 65.1472 688.193 64.772 687.886 64.4955C687.578 64.2191 687.192 63.992 686.706 63.8241C686.221 63.6562 685.695 63.5081 685.111 63.3798C684.526 63.2514 683.951 63.1033 683.366 62.9355C682.781 62.7676 682.246 62.5405 681.76 62.2739C681.275 62.0073 680.888 61.6519 680.591 61.1977C680.294 60.7435 680.145 60.1708 680.145 59.45C680.145 58.7292 680.333 58.1368 680.7 57.5543C681.067 56.9717 681.632 56.5175 682.405 56.1621C683.168 55.8165 684.149 55.6387 685.329 55.6387C686.112 55.6387 686.895 55.7375 687.668 55.9448C688.441 56.1522 689.115 56.4385 689.68 56.8236L689.045 58.3442C688.461 57.9591 687.856 57.6826 687.212 57.5148C686.567 57.3469 685.943 57.258 685.338 57.258C684.575 57.258 683.951 57.3568 683.465 57.5444C682.98 57.732 682.623 57.9887 682.395 58.3047C682.167 58.6206 682.058 58.9761 682.058 59.371C682.058 59.845 682.207 60.2202 682.514 60.4966C682.821 60.7731 683.208 61.0002 683.693 61.1681C684.179 61.3359 684.704 61.484 685.289 61.6124C685.864 61.7506 686.449 61.8987 687.033 62.0567C687.618 62.2246 688.153 62.4418 688.639 62.7084C689.125 62.975 689.511 63.3304 689.808 63.7747C690.106 64.2191 690.254 64.7917 690.254 65.4928C690.254 66.1938 690.066 66.7862 689.69 67.3688C689.313 67.9513 688.738 68.4055 687.955 68.761C687.172 69.1066 686.191 69.2843 685.011 69.2843L684.992 69.2646Z" fill="#1D1D1B"></path>
        <path d="M696.895 69.2646C695.864 69.2646 694.883 69.1066 693.942 68.8005C693 68.4944 692.257 68.0896 691.721 67.5959L692.435 66.1148C692.95 66.5591 693.605 66.9245 694.407 67.2207C695.21 67.5169 696.033 67.6551 696.905 67.6551C697.688 67.6551 698.332 67.5663 698.818 67.3885C699.304 67.2108 699.67 66.964 699.898 66.6579C700.126 66.3518 700.245 65.9963 700.245 65.6014C700.245 65.1472 700.096 64.772 699.789 64.4955C699.482 64.2191 699.095 63.992 698.61 63.8241C698.124 63.6562 697.599 63.5081 697.014 63.3798C696.429 63.2514 695.854 63.1033 695.27 62.9355C694.685 62.7676 694.15 62.5405 693.664 62.2739C693.178 62.0073 692.792 61.6519 692.494 61.1977C692.197 60.7435 692.048 60.1708 692.048 59.45C692.048 58.7292 692.237 58.1368 692.603 57.5543C692.97 56.9717 693.535 56.5175 694.308 56.1621C695.071 55.8165 696.053 55.6387 697.232 55.6387C698.015 55.6387 698.798 55.7375 699.571 55.9448C700.344 56.1522 701.018 56.4385 701.583 56.8236L700.949 58.3442C700.364 57.9591 699.759 57.6826 699.115 57.5148C698.471 57.3469 697.847 57.258 697.242 57.258C696.479 57.258 695.854 57.3568 695.369 57.5444C694.883 57.732 694.526 57.9887 694.298 58.3047C694.07 58.6206 693.961 58.9761 693.961 59.371C693.961 59.845 694.11 60.2202 694.417 60.4966C694.725 60.7731 695.111 61.0002 695.597 61.1681C696.082 61.3359 696.608 61.484 697.192 61.6124C697.767 61.7506 698.352 61.8987 698.937 62.0567C699.522 62.2246 700.057 62.4418 700.542 62.7084C701.028 62.975 701.415 63.3304 701.712 63.7747C702.009 64.2191 702.158 64.7917 702.158 65.4928C702.158 66.1938 701.97 66.7862 701.593 67.3688C701.216 67.9513 700.642 68.4055 699.859 68.761C699.076 69.1066 698.094 69.2843 696.915 69.2843L696.895 69.2646Z" fill="#1D1D1B"></path>
        <path d="M704.854 69.1066V55.777H706.787V69.1066H704.854Z" fill="#1D1D1B"></path>
        <path d="M716.857 69.2646C715.826 69.2646 714.864 69.0967 713.982 68.7511C713.1 68.4055 712.337 67.9316 711.693 67.3095C711.048 66.6974 710.543 65.9766 710.186 65.1472C709.829 64.3178 709.641 63.4193 709.641 62.4418C709.641 61.4643 709.819 60.5658 710.186 59.7364C710.543 58.907 711.048 58.1862 711.693 57.574C712.337 56.9618 713.1 56.478 713.972 56.1324C714.844 55.7868 715.806 55.619 716.857 55.619C717.907 55.619 718.839 55.7868 719.711 56.1226C720.583 56.4583 721.336 56.9322 721.991 57.5543C722.645 58.1664 723.14 58.8872 723.497 59.7166C723.854 60.546 724.032 61.4544 724.032 62.4418C724.032 63.4292 723.854 64.3375 723.497 65.1669C723.14 65.9963 722.645 66.7171 721.991 67.3293C721.336 67.9415 720.583 68.4253 719.711 68.761C718.839 69.0967 717.887 69.2646 716.857 69.2646ZM716.857 67.5663C717.6 67.5663 718.294 67.4379 718.938 67.1812C719.582 66.9245 720.127 66.569 720.603 66.1049C721.069 65.6409 721.436 65.0978 721.703 64.4758C721.971 63.8537 722.1 63.1724 722.1 62.4418C722.1 61.7111 721.971 61.0298 721.703 60.4078C721.436 59.7857 721.069 59.2427 720.603 58.7786C720.137 58.3145 719.582 57.9591 718.938 57.7024C718.304 57.4456 717.61 57.3173 716.857 57.3173C716.103 57.3173 715.4 57.4456 714.755 57.7024C714.121 57.9591 713.556 58.3145 713.08 58.7786C712.605 59.2427 712.228 59.7857 711.97 60.4078C711.703 61.0298 711.574 61.7111 711.574 62.4418C711.574 63.1724 711.703 63.8537 711.97 64.4758C712.238 65.0978 712.605 65.6409 713.08 66.1049C713.556 66.569 714.111 66.9245 714.755 67.1812C715.4 67.4379 716.093 67.5663 716.857 67.5663Z" fill="#1D1D1B"></path>
        <path d="M726.887 69.1066V55.777H728.473L737.423 66.727H736.59V55.777H738.523V69.1066H736.937L727.987 58.1566H728.82V69.1066H726.887Z" fill="#1D1D1B"></path>
        <path d="M740.436 69.1066L746.561 55.777H748.474L754.619 69.1066H752.587L747.116 56.8433H747.889L742.418 69.1066H740.426H740.436ZM743.042 65.7692L743.568 64.2487H751.179L751.744 65.7692H743.052H743.042Z" fill="#1D1D1B"></path>
        <path d="M756.532 69.1066V55.777H758.464V67.4478H765.789V69.1066H756.532Z" fill="#1D1D1B"></path>
        <path d="M456.972 40.9466H514.17V3.12999H456.972C446.485 3.12999 437.991 11.5918 437.991 22.0383C437.991 32.4847 446.485 40.9466 456.972 40.9466Z" fill="#1D1D1B"></path>
        <path d="M495.19 78.3484H437.991V40.5319H495.19C505.676 40.5319 514.17 48.9937 514.17 59.4401C514.17 69.8866 505.676 78.3484 495.19 78.3484Z" fill="#1D1D1B"></path>
        <path d="M580.546 2.70542H530.652C526.272 2.70542 522.713 6.2501 522.713 10.6143V78.3484L562.061 58.8082H580.536C590.675 58.8082 598.892 50.6229 598.892 40.522V20.9818C598.892 10.8809 590.675 2.69554 580.536 2.69554L580.546 2.70542Z" fill="#E30613"></path>
        <path d="M25.9479 79.0199C21.2003 79.0199 16.8393 77.914 12.8748 75.7121C8.91028 73.5103 5.76839 70.3704 3.45905 66.2827C1.14971 62.2048 0 57.3765 0 51.7978C0 46.2192 1.14971 41.4106 3.45905 37.3624C5.76839 33.3141 8.91028 30.1743 12.8748 27.9329C16.8393 25.7014 21.2003 24.5758 25.9479 24.5758C30.6954 24.5758 34.7293 25.5435 37.8514 27.4886C40.9734 29.4337 43.3125 32.3959 44.8785 36.3849C46.4346 40.3739 47.2176 45.5082 47.2176 51.788C47.2176 58.0677 46.385 63.1132 44.7298 67.0923C43.0746 71.0813 40.6662 74.0533 37.5144 76.038C34.3626 78.0127 30.5071 79.0001 25.9578 79.0001L25.9479 79.0199ZM29.8529 64.3474C31.9343 64.3474 33.8075 63.8636 35.4627 62.8861C37.1179 61.9185 38.4559 60.4868 39.4669 58.6108C40.4779 56.7347 40.9833 54.4638 40.9833 51.8077C40.9833 49.1517 40.4779 46.8807 39.4669 45.0047C38.4559 43.1287 37.1278 41.697 35.4627 40.7293C33.8075 39.7617 31.9343 39.268 29.8529 39.268C27.7715 39.268 25.8983 39.7518 24.2431 40.7293C22.5879 41.697 21.2499 43.1287 20.2389 45.0047C19.228 46.8807 18.7225 49.1517 18.7225 51.8077C18.7225 54.4638 19.228 56.7347 20.2389 58.6108C21.2499 60.4868 22.578 61.9185 24.2431 62.8861C25.8983 63.8537 27.7715 64.3474 29.8529 64.3474ZM40.686 97V69.2942L41.6573 51.7978L41.5582 34.4002V25.4546H59.2202V96.9901H40.686V97Z" fill="#1D1D1B"></path>
        <path d="M90.6391 79.0199C86.3475 79.0199 82.492 78.1806 79.0825 76.4922C75.6631 74.8038 72.9969 72.1674 71.084 68.5734C69.1612 64.9793 68.2097 60.4275 68.2097 54.918V25.4645H86.7439V51.9065C86.7439 55.9843 87.5071 58.907 89.0334 60.6546C90.5598 62.4023 92.7205 63.281 95.5254 63.281C97.349 63.281 99.0042 62.8565 100.501 62.0172C101.997 61.1779 103.197 59.8351 104.109 57.9887C105.02 56.1423 105.476 53.7627 105.476 50.8401V25.4743H124.011V78.151H106.349V63.281L109.768 67.4577C107.944 71.3479 105.308 74.2508 101.869 76.1565C98.4195 78.072 94.6829 79.0199 90.649 79.0199H90.6391Z" fill="#1D1D1B"></path>
        <path d="M149.859 79.0198C145.627 79.0198 142.049 78.3089 139.125 76.8772C136.201 75.4554 133.971 73.5103 132.445 71.0418C130.919 68.5833 130.156 65.8285 130.156 62.7775C130.156 59.5389 130.988 56.7347 132.643 54.3749C134.298 52.0151 136.856 50.1983 140.305 48.9344C143.754 47.6706 148.204 47.0387 153.675 47.0387H166.163V56.6656H156.212C153.219 56.6656 151.118 57.1494 149.919 58.1269C148.719 59.0946 148.115 60.3979 148.115 62.0172C148.115 63.6365 148.729 64.93 149.968 65.9075C151.207 66.8751 152.892 67.3688 155.043 67.3688C157.055 67.3688 158.898 66.8652 160.554 65.8581C162.209 64.851 163.428 63.3205 164.211 61.2372L166.748 68.0402C165.777 71.6738 163.874 74.4088 161.039 76.2552C158.215 78.1016 154.488 79.0297 149.869 79.0297L149.859 79.0198ZM165.47 78.151V68.3364L164.201 65.9075V47.8286C164.201 44.9158 163.309 42.6646 161.515 41.0749C159.721 39.4852 156.876 38.6953 152.981 38.6953C150.444 38.6953 147.877 39.1002 145.27 39.9098C142.664 40.7195 140.453 41.8352 138.64 43.2669L132.396 30.7272C135.389 28.7821 138.977 27.2812 143.179 26.205C147.372 25.1386 151.554 24.6055 155.717 24.6055C164.3 24.6055 170.951 26.5703 175.668 30.4902C180.386 34.4101 182.745 40.5516 182.745 48.9048V78.1608H165.48L165.47 78.151Z" fill="#1D1D1B"></path>
        <path d="M191.715 78.151V6.023H210.249V78.1411H191.715V78.151Z" fill="#1D1D1B"></path>
        <path d="M228.793 19.6291C225.413 19.6291 222.678 18.6911 220.596 16.815C218.515 14.939 217.474 12.6088 217.474 9.81454C217.474 7.02026 218.515 4.69992 220.596 2.81403C222.678 0.938009 225.413 0 228.793 0C232.173 0 234.908 0.88864 236.99 2.67579C239.071 4.46295 240.112 6.74379 240.112 9.5282C240.112 12.3126 239.091 14.86 237.039 16.7657C234.988 18.6812 232.242 19.6291 228.793 19.6291ZM219.516 78.151V25.4645H238.05V78.1411H219.516V78.151Z" fill="#1D1D1B"></path>
        <path d="M241.767 41.2132V27.4096H280.114V41.2132H241.767ZM249.468 78.151V26.047C249.468 19.6982 251.371 14.6231 255.177 10.8315C258.983 7.04 264.424 5.14424 271.521 5.14424C273.8 5.14424 276.04 5.37134 278.251 5.82553C280.461 6.27972 282.314 6.96101 283.811 7.8694L279.222 20.8929C278.439 20.4387 277.567 20.0635 276.585 19.7772C275.614 19.481 274.633 19.3427 273.662 19.3427C271.709 19.3427 270.203 19.9154 269.122 21.041C268.052 22.1765 267.517 23.9044 267.517 26.2445V30.036L268.002 37.7178V78.151H249.468ZM297.865 19.6291C294.485 19.6291 291.75 18.6911 289.668 16.815C287.587 14.939 286.546 12.6088 286.546 9.81454C286.546 7.02026 287.587 4.69992 289.668 2.81403C291.75 0.938009 294.485 0 297.865 0C301.245 0 303.98 0.88864 306.062 2.67579C308.143 4.46295 309.184 6.74379 309.184 9.5282C309.184 12.3126 308.163 14.86 306.111 16.7657C304.06 18.6812 301.314 19.6291 297.865 19.6291ZM288.598 78.151V25.4645H307.132V78.1411H288.598V78.151Z" fill="#1D1D1B"></path>
        <path d="M343.427 79.0198C337.57 79.0198 332.357 77.8547 327.768 75.5245C323.179 73.1943 319.591 69.9656 316.984 65.8581C314.377 61.7407 313.079 57.0309 313.079 51.7189C313.079 46.4068 314.377 41.7068 316.984 37.629C319.581 33.5511 323.179 30.352 327.768 28.0514C332.357 25.7508 337.57 24.6055 343.427 24.6055C349.285 24.6055 354.578 25.8693 358.939 28.397C363.3 30.9247 366.382 34.4891 368.206 39.0903L353.864 46.3771C352.625 43.9186 351.099 42.1215 349.275 40.9861C347.451 39.8506 345.469 39.2878 343.328 39.2878C341.187 39.2878 339.235 39.7716 337.471 40.7491C335.716 41.7167 334.329 43.1287 333.328 44.9751C332.317 46.8215 331.811 49.0727 331.811 51.7287C331.811 54.3848 332.317 56.7545 333.328 58.6305C334.339 60.5065 335.716 61.9382 337.471 62.9058C339.225 63.8735 341.178 64.3672 343.328 64.3672C345.479 64.3672 347.461 63.8044 349.275 62.6689C351.099 61.5334 352.625 59.7364 353.864 57.2778L368.206 64.5646C366.382 69.1658 363.29 72.7303 358.939 75.2579C354.578 77.7856 349.414 79.0495 343.427 79.0495V79.0198Z" fill="#1D1D1B"></path>
        <path d="M389.188 79.0198C384.956 79.0198 381.378 78.3089 378.454 76.8772C375.53 75.4554 373.3 73.5103 371.774 71.0418C370.248 68.5833 369.484 65.8285 369.484 62.7775C369.484 59.5389 370.317 56.7347 371.972 54.3749C373.627 52.0151 376.184 50.1983 379.634 48.9344C383.083 47.6706 387.533 47.0387 393.004 47.0387H405.492V56.6656H395.541C392.548 56.6656 390.447 57.1494 389.248 58.1269C388.048 59.0946 387.444 60.3979 387.444 62.0172C387.444 63.6365 388.058 64.93 389.297 65.9075C390.536 66.8751 392.221 67.3688 394.372 67.3688C396.384 67.3688 398.227 66.8652 399.882 65.8581C401.538 64.851 402.757 63.3205 403.54 61.2372L406.077 68.0402C405.106 71.6738 403.203 74.4088 400.368 76.2552C397.543 78.1016 393.817 79.0297 389.198 79.0297L389.188 79.0198ZM404.798 78.151V68.3364L403.53 65.9075V47.8286C403.53 44.9158 402.638 42.6646 400.844 41.0749C399.05 39.4852 396.205 38.6953 392.31 38.6953C389.773 38.6953 387.206 39.1002 384.599 39.9098C381.992 40.7195 379.782 41.8352 377.968 43.2669L371.724 30.7272C374.718 28.7821 378.305 27.2812 382.508 26.205C386.7 25.1386 390.883 24.6055 395.046 24.6055C403.629 24.6055 410.279 26.5703 414.997 30.4902C419.715 34.4101 422.074 40.5516 422.074 48.9048V78.1608H404.808L404.798 78.151Z" fill="#1D1D1B"></path></g>
    <defs><clipPath id="clip0_1212_171"><rect width="769" height="97" fill="white"></rect></clipPath></defs></svg>